<?xml version="1.0" encoding="UTF-8"?>
<svg version="1.1" xmlns="http://www.w3.org/2000/svg" width="2210" height="1711">
<path d="M0 0 C49.63100941 -0.04598259 99.26201662 -0.08112251 148.89304322 -0.10213066 C154.77960697 -0.10463146 160.66617068 -0.10722017 166.55273438 -0.10986328 C168.3102732 -0.11065021 168.3102732 -0.11065021 170.10331786 -0.11145304 C188.96608762 -0.12010739 207.82884493 -0.13584931 226.69160736 -0.15430559 C246.10997146 -0.17314415 265.52832914 -0.18414587 284.946702 -0.18817699 C295.82693704 -0.1906524 306.70714611 -0.19655824 317.58737183 -0.21146011 C406.51536779 -0.32959489 406.51536779 -0.32959489 444 2 C444.87739775 2.05372694 445.75479549 2.10745387 446.65878105 2.1628089 C538.08236898 7.78153527 628.71121228 22.49751509 816.09179688 86.13806152 C818.10059017 87.04543675 820.11236341 87.94590988 822.125 88.84472656 C846.40997364 99.69175726 870.13803371 111.11324659 893.20361328 124.39892578 C895.89508774 125.93993237 898.59873209 127.45645321 901.30859375 128.96484375 C913.65965567 135.86758893 925.53074688 143.37096887 937.30761719 151.20996094 C939.80574508 152.87084901 942.31134725 154.51960962 944.8203125 156.1640625 C965.11947453 169.51247091 984.37747012 184.1177403 1003.16650391 199.50292969 C1004.79694039 200.83419953 1006.43504819 202.15606169 1008.07421875 203.4765625 C1013.71063171 208.02750364 1019.12051249 212.76467674 1024.453125 217.66796875 C1026.58941749 219.62405252 1028.74780657 221.54187697 1030.9375 223.4375 C1041.12142746 232.31562044 1050.80335613 241.6421243 1060.33813477 251.20776367 C1062.32389676 253.19892777 1064.3150074 255.18463221 1066.30664062 257.16992188 C1077.58357522 268.44096291 1077.58357522 268.44096291 1082.62280273 274.37768555 C1084.79196861 276.93292527 1087.09054589 279.35997043 1089.375 281.8125 C1093.61310701 286.40559375 1097.65600193 291.11270222 1101.57421875 295.984375 C1103.35359865 298.19642216 1105.14630553 300.39206839 1106.95703125 302.578125 C1114.74771244 312.01448893 1122.09584705 321.72171279 1129.27685547 331.62841797 C1130.94722943 333.9273713 1132.63011136 336.21661526 1134.31640625 338.50390625 C1153.07705136 364.05079551 1169.79265875 391.34876406 1184.60253906 419.36523438 C1185.98742795 421.97629671 1187.39440827 424.57445579 1188.8046875 427.171875 C1204.02103475 455.45640986 1216.69726245 484.96368714 1228 515 C1228.40621582 516.06444336 1228.81243164 517.12888672 1229.23095703 518.22558594 C1262.18738755 604.82908562 1278.50645459 698.65392072 1283 791 C1283.04203552 791.83943146 1283.08407104 792.67886292 1283.12738037 793.54373169 C1284.11697772 813.92076415 1284.24515522 834.29117715 1284.25 854.6875 C1284.25044186 855.5443338 1284.25088371 856.4011676 1284.25133896 857.28396606 C1284.2589734 885.62533386 1283.65093061 913.76493748 1281 942 C1280.91514343 942.92874939 1280.83028687 943.85749878 1280.74285889 944.81439209 C1272.43599558 1035.64985556 1251.91010616 1124.79814068 1194 1258 C1193.42217773 1259.15290527 1192.84435547 1260.30581055 1192.24902344 1261.49365234 C1184.42547906 1277.0144067 1175.96227634 1292.10939138 1167 1307 C1166.56123535 1307.72944824 1166.1224707 1308.45889648 1165.67041016 1309.21044922 C1154.84121442 1327.09932186 1143.19857043 1344.56671563 1130.43115234 1361.12890625 C1128.95240197 1363.06222983 1127.49864424 1365.01220417 1126.05078125 1366.96875 C1112.52428014 1385.23882763 1097.99065268 1402.68658945 1082.51782227 1419.33862305 C1081.40899096 1420.55232693 1080.3151154 1421.77974239 1079.23022461 1423.01489258 C1072.48516677 1430.65918479 1065.30581997 1437.84599896 1058.08862305 1445.04174805 C1055.93487478 1447.19011866 1053.78654774 1449.34380694 1051.63867188 1451.49804688 C1050.24771646 1452.88834168 1048.85645097 1454.27832636 1047.46484375 1455.66796875 C1046.83440659 1456.30043015 1046.20396942 1456.93289154 1045.5544281 1457.58451843 C1041.74852169 1461.37079044 1037.82775572 1464.97202482 1033.76107788 1468.47703552 C1031.3549634 1470.55782191 1029.02396319 1472.71658766 1026.6875 1474.875 C1022.17574807 1478.98902173 1017.54435568 1482.90109809 1012.79296875 1486.734375 C1009.95478349 1489.03667913 1007.16523516 1491.38991023 1004.375 1493.75 C992.02944866 1504.05126858 979.05599895 1513.62183488 966 1523 C965.25943359 1523.53206055 964.51886719 1524.06412109 963.75585938 1524.61230469 C892.02947297 1575.93428142 811.21349115 1613.81319738 711 1646 C710.2939563 1646.21936218 709.5879126 1646.43872437 708.86047363 1646.66473389 C624.4019752 1672.81090223 535.06277257 1686.25738386 437.5 1692.1875 C436.47221939 1692.24289444 436.47221939 1692.24289444 435.42367554 1692.29940796 C411.23459859 1693.57120214 387.05161469 1694.15027614 362.83081055 1694.11352539 C360.15661519 1694.11324229 357.48242256 1694.11336 354.80822754 1694.1139679 C349.12072455 1694.114485 343.4332333 1694.111425 337.74573326 1694.10573006 C329.52319322 1694.09750225 321.30065868 1694.09498848 313.07811496 1694.09374207 C299.7282616 1694.09156897 286.37841445 1694.08495685 273.02856445 1694.07543945 C260.08260122 1694.06621976 247.13663969 1694.0591614 234.19067383 1694.05493164 C233.38881701 1694.05466892 232.58696019 1694.05440619 231.76080468 1694.05413551 C227.73696977 1694.0528302 223.71313486 1694.05156656 219.68929994 1694.05032361 C186.45952878 1694.0400054 153.22976523 1694.02243539 120 1694 C119.67 1692.68 119.34 1691.36 119 1690 C119.99 1690 120.98 1690 122 1690 C122 1688.68 122 1687.36 122 1686 C122.99 1686 123.98 1686 125 1686 C125 1684.02 125 1682.04 125 1680 C125.99 1679.67 126.98 1679.34 128 1679 C128 1677.02 128 1675.04 128 1673 C129.32 1673 130.64 1673 132 1673 C132 1670.69 132 1668.38 132 1666 C132.99 1666 133.98 1666 135 1666 C135 1664.02 135 1662.04 135 1660 C135.99 1659.67 136.98 1659.34 138 1659 C138.33 1657.02 138.66 1655.04 139 1653 C139.99 1652.67 140.98 1652.34 142 1652 C142 1650.02 142 1648.04 142 1646 C142.99 1646 143.98 1646 145 1646 C145 1644.02 145 1642.04 145 1640 C146.32 1639.67 147.64 1639.34 149 1639 C149 1637.02 149 1635.04 149 1633 C149.99 1632.67 150.98 1632.34 152 1632 C152 1630.02 152 1628.04 152 1626 C152.66 1625.67 153.32 1625.34 154 1625 C154.72693904 1623.02111039 155.39816251 1621.02045442 156 1619 C156.99 1619 157.98 1619 159 1619 C159 1616.69 159 1614.38 159 1612 C159.99 1612 160.98 1612 162 1612 C162 1610.02 162 1608.04 162 1606 C162.99 1605.67 163.98 1605.34 165 1605 C165.33 1602.69 165.66 1600.38 166 1598 C166.99 1598 167.98 1598 169 1598 C169 1596.02 169 1594.04 169 1592 C169.99 1591.67 170.98 1591.34 172 1591 C172 1589.02 172 1587.04 172 1585 C173.32 1585 174.64 1585 176 1585 C176 1581.7 176 1578.4 176 1575 C176.99 1575 177.98 1575 179 1575 C179 1572.69 179 1570.38 179 1568 C179.99 1568 180.98 1568 182 1568 C182.33 1565.69 182.66 1563.38 183 1561 C183.99 1561 184.98 1561 186 1561 C186 1558.69 186 1556.38 186 1554 C186.99 1554 187.98 1554 189 1554 C189 1551.03 189 1548.06 189 1545 C190.32 1544.67 191.64 1544.34 193 1544 C193 1542.35 193 1540.7 193 1539 C193.99 1538.67 194.98 1538.34 196 1538 C196 1536.68 196 1535.36 196 1534 C196.99 1534 197.98 1534 199 1534 C199 1532.02 199 1530.04 199 1528 C200.32 1527.67 201.64 1527.34 203 1527 C203 1525.02 203 1523.04 203 1521 C203.66 1520.67 204.32 1520.34 205 1520 C206.05226728 1518.02699884 207.04788888 1516.02323613 208 1514 C208.66666667 1512.66666667 209.33333333 1511.33333333 210 1510 C210.99 1510 211.98 1510 213 1510 C213 1508.02 213 1506.04 213 1504 C213.99 1504 214.98 1504 216 1504 C216.33 1501.69 216.66 1499.38 217 1497 C217.99 1497 218.98 1497 220 1497 C220 1495.68 220 1494.36 220 1493 C220.99 1493 221.98 1493 223 1493 C223 1491.02 223 1489.04 223 1487 C223.99 1487 224.98 1487 226 1487 C226.33 1484.69 226.66 1482.38 227 1480 C227.99 1480 228.98 1480 230 1480 C230.33 1478.68 230.66 1477.36 231 1476 C231.66 1476 232.32 1476 233 1476 C233 1474.02 233 1472.04 233 1470 C234.32 1470 235.64 1470 237 1470 C237 1467.69 237 1465.38 237 1463 C237.99 1463 238.98 1463 240 1463 C240 1461.35 240 1459.7 240 1458 C240.99 1457.67 241.98 1457.34 243 1457 C243 1455.68 243 1454.36 243 1453 C244.32 1453 245.64 1453 247 1453 C247 1450.69 247 1448.38 247 1446 C247.99 1446 248.98 1446 250 1446 C250 1444.02 250 1442.04 250 1440 C250.99 1439.67 251.98 1439.34 253 1439 C253.33 1437.02 253.66 1435.04 254 1433 C254.99 1433 255.98 1433 257 1433 C257 1431.68 257 1430.36 257 1429 C261.01160004 1427.66279999 264.88466941 1427.83044055 269.0690918 1427.81054688 C270.00014236 1427.80225357 270.93119293 1427.79396027 271.89045715 1427.78541565 C273.92180857 1427.76798466 275.95318043 1427.75282625 277.98456383 1427.73963928 C281.24291761 1427.71846604 284.50117797 1427.69142916 287.75947571 1427.66296387 C293.55888199 1427.61328261 299.35831498 1427.56884222 305.15777588 1427.52606201 C365.55227198 1427.32173185 365.55227198 1427.32173185 425.875 1424.6875 C427.32860931 1424.59187775 427.32860931 1424.59187775 428.81158447 1424.49432373 C446.29081116 1423.33475423 463.65905682 1421.66152682 481.01263428 1419.27282715 C483.0125912 1418.99827147 485.01328677 1418.72970113 487.01416016 1418.46191406 C552.78615553 1409.58774871 618.46347376 1392.43045251 679 1365 C680.13646973 1364.48711426 681.27293945 1363.97422852 682.44384766 1363.44580078 C698.99251991 1355.9558617 715.27266842 1348.11784128 731 1339 C732.34457275 1338.22052002 732.34457275 1338.22052002 733.71630859 1337.42529297 C745.63320702 1330.45534937 757.19318693 1322.98204523 768.625 1315.25 C769.20042542 1314.86198212 769.77585083 1314.47396423 770.36871338 1314.07418823 C781.7263095 1306.39649887 792.55939739 1298.09650708 803.1875 1289.4375 C803.86039063 1288.89013184 804.53328125 1288.34276367 805.2265625 1287.77880859 C809.7961634 1284.0391472 814.25087561 1280.19788703 818.59375 1276.1953125 C820.64413016 1274.32467345 822.71929252 1272.49405973 824.8125 1270.671875 C840.24092283 1257.19891506 855.15539289 1242.83622287 867.8125 1226.6875 C869.74506492 1224.31320595 871.74506277 1222.05180342 873.796875 1219.78125 C877.88368597 1215.20674373 881.60147154 1210.42771133 885.25 1205.5 C885.89694824 1204.62980225 886.54389648 1203.75960449 887.21044922 1202.86303711 C889.14793799 1200.24754642 891.07609136 1197.62549196 893 1195 C893.54237305 1194.26152832 894.08474609 1193.52305664 894.64355469 1192.76220703 C946.18624535 1122.23096631 976.64341701 1037.46972366 992.25 929.5625 C992.47671387 927.70334961 992.47671387 927.70334961 992.70800781 925.80664062 C995.43080758 901.87304631 996.35104789 877.95022922 996.25 853.875 C996.24663209 852.53385474 996.24350188 851.19270885 996.24060059 849.8515625 C996.18921722 829.17439174 995.83982749 808.60203105 994 788 C993.93683594 787.27903137 993.87367187 786.55806274 993.80859375 785.81524658 C987.7047546 716.68889423 971.64708249 649.32161048 943 586 C942.54125488 584.98470215 942.08250977 583.9694043 941.60986328 582.92333984 C934.87250703 568.14579684 927.19362144 554.01488046 919 540 C918.24783203 538.69869141 918.24783203 538.69869141 917.48046875 537.37109375 C909.98788519 524.42216965 901.79094574 512.10237865 893 500 C892.20263428 498.90099365 892.20263428 498.90099365 891.38916016 497.77978516 C885.41407213 489.58628878 879.19015908 481.6778836 872.56640625 474 C870.23281478 471.27214878 867.98561718 468.49560233 865.75 465.6875 C856.73411571 454.64503641 846.6118195 444.53057107 836.5625 434.4375 C835.82974854 433.70007568 835.09699707 432.96265137 834.34204102 432.20288086 C830.27700838 428.14984628 826.1149427 424.27275744 821.76635742 420.52563477 C819.5917144 418.64735636 817.48574652 416.69956224 815.375 414.75 C809.17044203 409.16589782 802.62019202 404.07369754 796 399 C795.27554687 398.44038574 794.55109375 397.88077148 793.8046875 397.30419922 C756.67419195 368.67753115 715.97884819 344.72177231 673 326 C671.97245605 325.55237305 670.94491211 325.10474609 669.88623047 324.64355469 C589.83181137 290.16747221 502.54013502 272.42637132 381.38137817 266.45033264 C380.50624825 266.42944767 379.63111833 266.4085627 378.72946931 266.38704485 C354.49965809 265.82493889 330.2660525 265.82530252 306.03092575 265.80144288 C298.99031172 265.79431071 291.94971019 265.7815259 284.90910468 265.76867336 C271.92624303 265.7451219 258.94337853 265.72581185 245.96050644 265.70907402 C233.13947028 265.69253041 220.31843938 265.67400647 207.49740982 265.65294075 C206.69482941 265.65162314 205.89224899 265.65030554 205.06534796 265.648948 C200.98805808 265.64224424 196.91076826 265.6355061 192.83347847 265.62875474 C164.08951163 265.58122071 135.34553982 265.53797138 106.6015625 265.49731445 C78.70865519 265.45785134 50.81575196 265.41640221 22.92285156 265.37231445 C22.06032918 265.37095192 21.19780679 265.36958939 20.30914736 265.36818558 C11.64591598 265.35449807 2.98268466 265.34077073 -5.68054661 265.32701423 C-23.32242093 265.29900129 -40.96429566 265.27125392 -58.60617065 265.2436676 C-59.82240498 265.2417653 -59.82240498 265.2417653 -61.0632097 265.23982458 C-115.04213314 265.15542714 -169.0210659 265.07723633 -223 265 C-223.495 263.515 -223.495 263.515 -224 262 C-224.99 261.67 -225.98 261.34 -227 261 C-227 258.03 -227 255.06 -227 252 C-227.99 251.67 -228.98 251.34 -230 251 C-230 248.03 -230 245.06 -230 242 C-230.99 241.67 -231.98 241.34 -233 241 C-233.66015625 239.00390625 -233.66015625 239.00390625 -234.0625 236.5625 C-234.63171515 232.85836343 -234.63171515 232.85836343 -237 230 C-237.1953125 227.8359375 -237.1953125 227.8359375 -237.125 225.375 C-237.10695313 224.55773437 -237.08890625 223.74046875 -237.0703125 222.8984375 C-237.04710937 222.27195313 -237.02390625 221.64546875 -237 221 C-237.99 221 -238.98 221 -240 221 C-240 217.7 -240 214.4 -240 211 C-240.99 211 -241.98 211 -243 211 C-244.60725635 207.78548731 -244.05748185 204.56387464 -244 201 C-244.99 200.67 -245.98 200.34 -247 200 C-247 197.03 -247 194.06 -247 191 C-247.99 191 -248.98 191 -250 191 C-250.33 187.7 -250.66 184.4 -251 181 C-251.99 180.67 -252.98 180.34 -254 180 C-254 177.03 -254 174.06 -254 171 C-254.99 170.67 -255.98 170.34 -257 170 C-257 167.03 -257 164.06 -257 161 C-258.32 160.34 -259.64 159.68 -261 159 C-261 156.36 -261 153.72 -261 151 C-261.99 150.67 -262.98 150.34 -264 150 C-264 147.03 -264 144.06 -264 141 C-264.99 140.67 -265.98 140.34 -267 140 C-267.66015625 137.96875 -267.66015625 137.96875 -268.0625 135.5 C-268.42516952 133.08992981 -268.42516952 133.08992981 -269 131 C-269.66 130.67 -270.32 130.34 -271 130 C-271.39310414 127.67711188 -271.50749695 125.38154824 -271.65625 123.03125 C-271.7696875 122.3609375 -271.883125 121.690625 -272 121 C-272.99 120.505 -272.99 120.505 -274 120 C-274.22875314 117.97390072 -274.45479356 115.94734801 -274.65234375 113.91796875 C-275.09940834 111.45157873 -276.22395862 110.70203966 -278 109 C-278.36760731 106.67182036 -278.70241581 104.3381615 -279 102 C-279.99 101.01 -279.99 101.01 -281 100 C-281.1953125 97.6171875 -281.1953125 97.6171875 -281.125 94.875 C-281.10695313 93.96492188 -281.08890625 93.05484375 -281.0703125 92.1171875 C-281.04710937 91.41851562 -281.02390625 90.71984375 -281 90 C-281.99 90 -282.98 90 -284 90 C-284 87.36 -284 84.72 -284 82 C-284.99 82 -285.98 82 -287 82 C-288.60725635 78.78548731 -288.05748185 75.56387464 -288 72 C-289.485 71.505 -289.485 71.505 -291 71 C-291.1953125 68.94921875 -291.390625 66.8984375 -291.5859375 64.84765625 C-291.72257813 64.23792969 -291.85921875 63.62820312 -292 63 C-292.66 62.67 -293.32 62.34 -294 62 C-294.63817067 59.6954948 -295.02037323 57.38503677 -295.4375 55.03125 C-295.623125 54.3609375 -295.80875 53.690625 -296 53 C-296.66 52.67 -297.32 52.34 -298 52 C-298 49.03 -298 46.06 -298 43 C-299.485 42.505 -299.485 42.505 -301 42 C-301 39.69 -301 37.38 -301 35 C-301.66 35 -302.32 35 -303 35 C-305 32 -305 32 -305.5 28.875 C-305.665 27.92625 -305.83 26.9775 -306 26 C-306.66 25.67 -307.32 25.34 -308 25 C-308 22.03 -308 19.06 -308 16 C-308.99 15.67 -309.98 15.34 -311 15 C-311 13.02 -311 11.04 -311 9 C-312.32 8.34 -313.64 7.68 -315 7 C-315 5.68 -315 4.36 -315 3 C-158.085 2.505 -158.085 2.505 2 2 C1.34 1.34 0.68 0.68 0 0 Z " fill="#FEFEFD" transform="translate(915,9)"/>
<path d="M0 0 C92.07 0 184.14 0 279 0 C291.73982508 28.83223571 304.45542656 57.67417499 317.11462402 86.54174805 C319.7216034 92.48644886 322.32913662 98.43090631 324.9375 104.375 C325.30722931 105.21758362 325.67695862 106.06016724 326.05789185 106.92828369 C331.85106969 120.12810093 337.66967279 133.31655441 343.5 146.5 C349.70624758 160.53347091 355.89672735 174.5736957 362.0625 188.625 C362.61721481 189.88911713 362.61721481 189.88911713 363.18313599 191.17877197 C366.16123147 197.9660216 369.13795955 204.75387074 372.11462402 211.54174805 C374.7216034 217.48644886 377.32913662 223.43090631 379.9375 229.375 C380.30722931 230.21758362 380.67695862 231.06016724 381.05789185 231.92828369 C386.85106969 245.12810093 392.66967279 258.31655441 398.5 271.5 C404.70624758 285.53347091 410.89672735 299.5736957 417.0625 313.625 C417.43230988 314.46774475 417.80211975 315.3104895 418.18313599 316.17877197 C421.16123147 322.9660216 424.13795955 329.75387074 427.11462402 336.54174805 C429.7216034 342.48644886 432.32913662 348.43090631 434.9375 354.375 C435.30722931 355.21758362 435.67695862 356.06016724 436.05789185 356.92828369 C441.85106969 370.12810093 447.66967279 383.31655441 453.5 396.5 C459.70624758 410.53347091 465.89672735 424.5736957 472.0625 438.625 C472.43230988 439.46774475 472.80211975 440.3104895 473.18313599 441.17877197 C476.16123147 447.9660216 479.13795955 454.75387074 482.11462402 461.54174805 C484.7216034 467.48644886 487.32913662 473.43090631 489.9375 479.375 C490.30722931 480.21758362 490.67695862 481.06016724 491.05789185 481.92828369 C496.85106969 495.12810093 502.66967279 508.31655441 508.5 521.5 C514.70624758 535.53347091 520.89672735 549.5736957 527.0625 563.625 C527.43230988 564.46774475 527.80211975 565.3104895 528.18313599 566.17877197 C531.16123147 572.9660216 534.13795955 579.75387074 537.11462402 586.54174805 C539.7216034 592.48644886 542.32913662 598.43090631 544.9375 604.375 C545.30722931 605.21758362 545.67695862 606.06016724 546.05789185 606.92828369 C551.85106969 620.12810093 557.66967279 633.31655441 563.5 646.5 C569.70624758 660.53347091 575.89672735 674.5736957 582.0625 688.625 C582.43230988 689.46774475 582.80211975 690.3104895 583.18313599 691.17877197 C586.16123147 697.9660216 589.13795955 704.75387074 592.11462402 711.54174805 C594.7216034 717.48644886 597.32913662 723.43090631 599.9375 729.375 C600.30722931 730.21758362 600.67695862 731.06016724 601.05789185 731.92828369 C606.85106969 745.12810093 612.66967279 758.31655441 618.5 771.5 C624.70624758 785.53347091 630.89672735 799.5736957 637.0625 813.625 C637.43230988 814.46774475 637.80211975 815.3104895 638.18313599 816.17877197 C641.16123147 822.9660216 644.13795955 829.75387074 647.11462402 836.54174805 C649.7216034 842.48644886 652.32913662 848.43090631 654.9375 854.375 C655.30722931 855.21758362 655.67695862 856.06016724 656.05789185 856.92828369 C661.85106969 870.12810093 667.66967279 883.31655441 673.5 896.5 C679.70624758 910.53347091 685.89672735 924.5736957 692.0625 938.625 C692.43230988 939.46774475 692.80211975 940.3104895 693.18313599 941.17877197 C696.16123147 947.9660216 699.13795955 954.75387074 702.11462402 961.54174805 C704.7216034 967.48644886 707.32913662 973.43090631 709.9375 979.375 C710.30722931 980.21758362 710.67695862 981.06016724 711.05789185 981.92828369 C717.24632675 996.02869834 723.46491196 1010.11565655 729.69345093 1024.19839478 C735.56614494 1037.4774699 741.41682275 1050.76602109 747.25 1064.0625 C747.99142084 1065.75196815 748.73287561 1067.44142141 749.47436523 1069.13085938 C749.83752335 1069.95830658 750.20068146 1070.78575378 750.57484436 1071.63827515 C751.30070151 1073.2921056 752.02656208 1074.94593455 752.75242615 1076.59976196 C754.57719523 1080.75751258 756.40152696 1084.91545409 758.22509766 1089.07373047 C760.00207143 1093.12514545 761.78147211 1097.17548653 763.56262207 1101.22506714 C764.22435815 1102.73065607 764.88525954 1104.23661217 765.54528809 1105.74295044 C766.44600858 1107.79833765 767.3495819 1109.85244642 768.25390625 1111.90625 C768.76252197 1113.06447266 769.2711377 1114.22269531 769.79516602 1115.41601562 C770.76360362 1117.87762007 770.76360362 1117.87762007 772 1119 C784.59565213 1091.15025304 784.59565213 1091.15025304 796.9375 1063.1875 C797.21149628 1062.55864899 797.48549255 1061.92979797 797.76779175 1061.28189087 C798.04543365 1060.64464081 798.32307556 1060.00739075 798.60913086 1059.35083008 C799.18207812 1058.03594792 799.75507689 1056.72108821 800.328125 1055.40625 C800.61667862 1054.74417038 800.90523224 1054.08209076 801.20252991 1053.39994812 C805.16600254 1044.31526247 809.17878763 1035.25228786 813.1875 1026.1875 C813.58814667 1025.28139984 813.98879333 1024.37529968 814.40158081 1023.44174194 C816.44885765 1018.81175923 818.49653153 1014.18195229 820.54443359 1009.55224609 C824.13785545 1001.42802667 827.7275897 993.30217802 831.3175354 985.17642212 C833.29486619 980.70087853 835.27244593 976.22544494 837.25 971.75 C838.04166785 969.95833386 838.83333452 968.16666719 839.625 966.375 C878.8125 877.6875 918 789 997.56245422 608.93760681 C998.35427664 607.14558551 999.1460959 605.3535628 999.93791199 603.5615387 C1001.91466966 599.08778654 1003.89148202 594.61405856 1005.8684082 590.14038086 C1009.86531682 581.09542841 1013.86126191 572.05005214 1017.85546875 563.00390625 C1022.18050327 553.2088537 1026.50914835 543.41540177 1030.84014893 533.62298584 C1032.0174188 530.96060765 1033.19405891 528.29795181 1034.37060547 525.63525391 C1036.26420799 521.3503771 1038.16029298 517.06660702 1040.05825806 512.78366089 C1040.76461171 511.18874243 1041.47016902 509.59347103 1042.17489624 507.99783325 C1043.13786686 505.8178998 1044.10369951 503.63925779 1045.0703125 501.4609375 C1045.35474716 500.8153035 1045.63918182 500.16966949 1045.93223572 499.50447083 C1047.88582046 495.11417954 1047.88582046 495.11417954 1049 494 C1050.46291627 493.90219281 1051.9305312 493.87368254 1053.39671326 493.87301636 C1054.34599701 493.87019653 1055.29528076 493.86737671 1056.27333069 493.86447144 C1057.32322678 493.86649567 1058.37312286 493.8685199 1059.45483398 493.87060547 C1060.5539209 493.86885315 1061.65300781 493.86710083 1062.78540039 493.86529541 C1066.43898064 493.86087394 1070.09251296 493.86381613 1073.74609375 493.8671875 C1076.2733613 493.8665145 1078.80062879 493.8655445 1081.32789612 493.86428833 C1086.63339919 493.86281092 1091.9388849 493.86487249 1097.24438477 493.86962891 C1103.38315554 493.87506872 1109.5218931 493.87331089 1115.66066307 493.8678025 C1121.55798396 493.86272198 1127.4552945 493.86325444 1133.35261726 493.86618423 C1135.86573351 493.86685329 1138.3788506 493.86602582 1140.89196587 493.86370468 C1144.39992419 493.86117635 1147.90781799 493.8650215 1151.41577148 493.87060547 C1152.46364334 493.86858124 1153.5115152 493.86655701 1154.59114075 493.86447144 C1156.01929611 493.86870117 1156.01929611 493.86870117 1157.4763031 493.87301636 C1158.72154078 493.8735819 1158.72154078 493.8735819 1159.99193478 493.87415886 C1162 494 1162 494 1164 495 C1164 495.66 1164 496.32 1164 497 C1164.99114304 496.99777939 1165.98228607 496.99555878 1167.00346375 496.99327087 C1176.34665611 496.97299414 1185.68984401 496.95800599 1195.0330534 496.94818783 C1199.83641668 496.94297053 1204.63976218 496.93589379 1209.44311523 496.92456055 C1214.07909635 496.91369074 1218.71506037 496.90771446 1223.35105324 496.90512276 C1225.11926352 496.9032759 1226.88747288 496.89966947 1228.65567589 496.89426994 C1231.13334546 496.88700522 1233.61094453 496.88601136 1236.08862305 496.88647461 C1236.81870575 496.88287933 1237.54878845 496.87928406 1238.30099487 496.87557983 C1241.99490507 496.88304725 1245.408167 497.11722919 1249 498 C1249 498.99 1249 499.98 1249 501 C1272.76 501 1296.52 501 1321 501 C1320.06659742 505.66701289 1318.59335746 509.48637292 1316.6328125 513.76171875 C1316.28669418 514.52755783 1315.94057587 515.29339691 1315.58396912 516.08244324 C1314.43586115 518.6197062 1313.28042077 521.15355981 1312.125 523.6875 C1311.31062168 525.48366244 1310.49674726 527.28005341 1309.68334961 529.07666016 C1307.9805622 532.83570358 1306.27488713 536.59341652 1304.56689453 540.35009766 C1302.11956856 545.73412252 1299.68122897 551.12217097 1297.24609375 556.51171875 C1294.09478833 563.48543636 1290.94144488 570.45822373 1287.78515625 577.4296875 C1283.41709215 587.07796306 1279.05141512 596.72731685 1274.68649292 606.37701416 C1272.70776819 610.75139083 1270.7288756 615.12569157 1268.75 619.5 C1267.95833253 621.24999964 1267.16666586 622.99999964 1266.375 624.75 C1227.1875 711.375 1188 798 1128.625 929.25 C1128.03719505 930.54935989 1128.03719505 930.54935989 1127.43751526 931.87496948 C1126.64580095 933.62507266 1125.85408342 935.37517439 1125.06236267 937.12527466 C1123.08389861 941.49868407 1121.10549035 945.87211871 1119.12719727 950.24560547 C1115.55638848 958.1395813 1111.9851785 966.03337433 1108.41188049 973.92622375 C1106.42014537 978.3256914 1104.428763 982.72531865 1102.4375 987.125 C1102.04501068 987.9921463 1101.65252136 988.8592926 1101.24813843 989.75271606 C1095.7954964 1001.80107668 1090.36298557 1013.85833809 1084.94299316 1025.92141724 C1084.56993042 1026.75172455 1084.19686768 1027.58203186 1083.8125 1028.4375 C1083.44137085 1029.26353729 1083.0702417 1030.08957458 1082.68786621 1030.94064331 C1077.06790281 1043.44541453 1071.3915147 1055.92334048 1065.67974854 1068.38641357 C1060.77803448 1079.083865 1055.9317422 1089.80402301 1051.13012695 1100.546875 C1046.40769264 1111.10703127 1041.64539269 1121.64892977 1036.875 1132.1875 C1036.27164322 1133.5204863 1036.27164322 1133.5204863 1035.65609741 1134.88040161 C1033.59491541 1139.43390845 1031.53338079 1143.98725552 1029.47167969 1148.54052734 C1025.87293244 1156.48880779 1022.27727608 1164.43848634 1018.68145752 1172.38809204 C1016.70443838 1176.75878836 1014.72720826 1181.12938923 1012.75 1185.5 C1011.95833233 1187.24999955 1011.16666566 1188.99999955 1010.375 1190.75 C971.1875 1277.375 932 1364 853.625 1537.25 C853.23313004 1538.11623993 852.84126007 1538.98247986 852.43751526 1539.87496948 C851.64580095 1541.62507266 850.85408342 1543.37517439 850.06236267 1545.12527466 C848.08389861 1549.49868407 846.10549035 1553.87211871 844.12719727 1558.24560547 C840.55638848 1566.1395813 836.9851785 1574.03337433 833.41188049 1581.92622375 C831.42014537 1586.3256914 829.428763 1590.72531865 827.4375 1595.125 C826.84876602 1596.42571945 826.84876602 1596.42571945 826.24813843 1597.75271606 C820.7944653 1609.80335504 815.36096106 1621.86291078 809.93997192 1633.92828369 C803.66757082 1647.88766557 797.36221524 1661.83129705 791 1675.75 C790.6560318 1676.50296356 790.3120636 1677.25592712 789.95767212 1678.03170776 C788.99355868 1680.14136371 788.02830617 1682.25049353 787.0625 1684.359375 C786.51722656 1685.55014648 785.97195313 1686.74091797 785.41015625 1687.96777344 C784.3115997 1690.32997433 783.16505962 1692.66988076 782 1695 C775.4 1695 768.8 1695 762 1695 C752.87365115 1674.88235276 743.75380501 1654.76320527 734.8125 1634.5625 C729.22829295 1621.94851328 723.54605371 1609.38287091 717.79501343 1596.84411621 C712.00487082 1584.21978426 706.29911832 1571.56016973 700.63136292 1558.88031006 C696.8924454 1550.51844461 693.13366938 1542.16550086 689.375 1533.8125 C688.99834198 1532.97533447 688.62168396 1532.13816895 688.23361206 1531.27563477 C681.83133667 1517.04782658 675.4028146 1502.83197508 668.96798706 1488.61886597 C663.59130645 1476.74185536 658.23419859 1464.85653506 652.9074707 1452.95703125 C648.4071812 1442.9041072 643.89418534 1432.85694291 639.375 1422.8125 C638.99807007 1421.97470001 638.62114014 1421.13690002 638.23278809 1420.27371216 C631.83047017 1406.04586618 625.40224564 1391.82982002 618.96697998 1377.61685181 C613.61610169 1365.79793664 608.28817457 1353.96930666 602.9909668 1342.1262207 C598.19068725 1331.40386124 593.34592164 1320.70179025 588.5 1310 C582.61243245 1296.99710659 576.74051159 1283.98771624 570.90869141 1270.9597168 C566.40795572 1260.90591514 561.89458881 1250.85783968 557.375 1240.8125 C556.99807007 1239.97470001 556.62114014 1239.13690002 556.23278809 1238.27371216 C549.8307776 1224.04654938 543.40252702 1209.83133986 536.96798706 1195.61886597 C531.59130645 1183.74185536 526.23419859 1171.85653506 520.9074707 1159.95703125 C516.4071812 1149.9041072 511.89418534 1139.85694291 507.375 1129.8125 C506.8096051 1128.55580002 506.8096051 1128.55580002 506.23278809 1127.27371216 C499.8307776 1113.04654938 493.40252702 1098.83133986 486.96798706 1084.61886597 C481.59130645 1072.74185536 476.23419859 1060.85653506 470.9074707 1048.95703125 C466.4071812 1038.9041072 461.89418534 1028.85694291 457.375 1018.8125 C456.99807007 1017.97470001 456.62114014 1017.13690002 456.23278809 1016.27371216 C449.8307776 1002.04654938 443.40252702 987.83133986 436.96798706 973.61886597 C431.59130645 961.74185536 426.23419859 949.85653506 420.9074707 937.95703125 C416.4071812 927.9041072 411.89418534 917.85694291 407.375 907.8125 C406.99807007 906.97470001 406.62114014 906.13690002 406.23278809 905.27371216 C399.8307776 891.04654938 393.40252702 876.83133986 386.96798706 862.61886597 C381.59130645 850.74185536 376.23419859 838.85653506 370.9074707 826.95703125 C366.4071812 816.9041072 361.89418534 806.85694291 357.375 796.8125 C356.99807007 795.97470001 356.62114014 795.13690002 356.23278809 794.27371216 C349.8307776 780.04654938 343.40252702 765.83133986 336.96798706 751.61886597 C331.59130645 739.74185536 326.23419859 727.85653506 320.9074707 715.95703125 C316.4071812 705.9041072 311.89418534 695.85694291 307.375 685.8125 C306.99807007 684.97470001 306.62114014 684.13690002 306.23278809 683.27371216 C299.8307776 669.04654938 293.40252702 654.83133986 286.96798706 640.61886597 C281.59130645 628.74185536 276.23419859 616.85653506 270.9074707 604.95703125 C266.4071812 594.9041072 261.89418534 584.85694291 257.375 574.8125 C256.99807007 573.97470001 256.62114014 573.13690002 256.23278809 572.27371216 C249.8307776 558.04654938 243.40252702 543.83133986 236.96798706 529.61886597 C231.59130645 517.74185536 226.23419859 505.85653506 220.9074707 493.95703125 C216.4071812 483.9041072 211.89418534 473.85694291 207.375 463.8125 C206.99807007 462.97470001 206.62114014 462.13690002 206.23278809 461.27371216 C199.83047017 447.04586618 193.40224564 432.82982002 186.96697998 418.61685181 C181.61610169 406.79793664 176.28817457 394.96930666 170.9909668 383.1262207 C166.19068725 372.40386124 161.34592164 361.70179025 156.5 351 C150.61243245 337.99710659 144.74051159 324.98771624 138.90869141 311.9597168 C134.40795572 301.90591514 129.89458881 291.85783968 125.375 281.8125 C124.99807007 280.97470001 124.62114014 280.13690002 124.23278809 279.27371216 C117.8307776 265.04654938 111.40252702 250.83133986 104.96798706 236.61886597 C99.59130645 224.74185536 94.23419859 212.85653506 88.9074707 200.95703125 C84.4071812 190.9041072 79.89418534 180.85694291 75.375 170.8125 C74.99807007 169.97470001 74.62114014 169.13690002 74.23278809 168.27371216 C67.8307776 154.04654938 61.40252702 139.83133986 54.96798706 125.61886597 C49.59333294 113.74633186 44.23677526 101.86613665 38.9140625 89.97021484 C35.50001527 82.34114888 32.07329515 74.71792539 28.63902283 67.09794617 C25.19275478 59.45096439 21.75251706 51.80128347 18.31494141 44.15039062 C16.75655845 40.68211225 15.19613416 37.21476219 13.63427734 33.74804688 C11.73362785 29.52824202 9.83880404 25.30586597 7.94815063 21.08157349 C7.2368809 19.49481395 6.52366646 17.90892461 5.80844116 16.32394409 C4.82280589 14.13882987 3.84414508 11.95072353 2.8671875 9.76171875 C2.574384 9.11680481 2.28158051 8.47189087 1.97990417 7.80743408 C0.73804648 5.00680348 0 3.10379703 0 0 Z " fill="#FEFEFD" transform="translate(4,7)"/>
<path d="M0 0 C0.33 0 0.66 0 1 0 C1.268125 0.969375 1.53625 1.93875 1.8125 2.9375 C2.61397296 5.76823427 3.52690946 8.5364752 4.5 11.3125 C6.1345277 16.12481506 7.11319907 21.00261593 8 26 C8.66 26 9.32 26 10 26 C10.12117187 26.61488281 10.24234375 27.22976562 10.3671875 27.86328125 C10.53476562 28.67152344 10.70234375 29.47976562 10.875 30.3125 C11.03742187 31.11300781 11.19984375 31.91351563 11.3671875 32.73828125 C11.94478999 35.25301118 11.94478999 35.25301118 14 38 C14.2475 39.7634375 14.2475 39.7634375 14.5 41.5625 C14.65847757 45.0571192 14.65847757 45.0571192 17 47 C17.4140625 49.1640625 17.4140625 49.1640625 17.625 51.625 C17.69976563 52.44226563 17.77453125 53.25953125 17.8515625 54.1015625 C17.90054688 54.72804687 17.94953125 55.35453125 18 56 C18.66 56 19.32 56 20 56 C20.12117187 56.62648437 20.24234375 57.25296875 20.3671875 57.8984375 C20.53476562 58.71570313 20.70234375 59.53296875 20.875 60.375 C21.03742187 61.18710938 21.19984375 61.99921875 21.3671875 62.8359375 C21.86658932 65.18673923 21.86658932 65.18673923 24 67 C24.4140625 69.1640625 24.4140625 69.1640625 24.625 71.625 C24.69976563 72.44226563 24.77453125 73.25953125 24.8515625 74.1015625 C24.90054688 74.72804688 24.94953125 75.35453125 25 76 C25.66 76 26.32 76 27 76 C27.12117187 76.62648438 27.24234375 77.25296875 27.3671875 77.8984375 C27.53476562 78.71570313 27.70234375 79.53296875 27.875 80.375 C28.03742187 81.18710938 28.19984375 81.99921875 28.3671875 82.8359375 C28.86658932 85.18673923 28.86658932 85.18673923 31 87 C31.37467382 89.04367539 31.50396061 91.05386434 31.65625 93.125 C31.86035366 95.23902286 31.86035366 95.23902286 34 97 C34.4140625 99.1640625 34.4140625 99.1640625 34.625 101.625 C34.69976563 102.44226563 34.77453125 103.25953125 34.8515625 104.1015625 C34.90054688 104.72804688 34.94953125 105.35453125 35 106 C35.66 106 36.32 106 37 106 C38.60725635 109.21451269 38.05748185 112.43612536 38 116 C38.99 116.33 39.98 116.66 41 117 C41.66015625 118.92578125 41.66015625 118.92578125 42.0625 121.3125 C42.63027184 124.58394728 43.4708846 127.06030528 45 130 C45.67188497 132.33183607 46.33915417 134.66501142 47 137 C47.33 137.33 47.66 137.66 48 138 C48.2253331 140.0279979 48.44767185 142.05674874 48.62109375 144.08984375 C48.86222227 146.2328948 48.86222227 146.2328948 51 148 C51.4140625 150.1640625 51.4140625 150.1640625 51.625 152.625 C51.69976563 153.44226563 51.77453125 154.25953125 51.8515625 155.1015625 C51.90054688 155.72804688 51.94953125 156.35453125 52 157 C52.66 157 53.32 157 54 157 C54.495 159.475 54.495 159.475 55 162 C53.35 161.67 51.7 161.34 50 161 C50 158.03 50 155.06 50 152 C49.01 151.67 48.02 151.34 47 151 C47 148.03 47 145.06 47 142 C46.01 141.67 45.02 141.34 44 141 C43.33984375 139.00390625 43.33984375 139.00390625 42.9375 136.5625 C42.36828485 132.85836343 42.36828485 132.85836343 40 130 C39.8046875 127.8359375 39.8046875 127.8359375 39.875 125.375 C39.89304687 124.55773437 39.91109375 123.74046875 39.9296875 122.8984375 C39.95289063 122.27195312 39.97609375 121.64546875 40 121 C39.01 121 38.02 121 37 121 C37 117.7 37 114.4 37 111 C36.01 111 35.02 111 34 111 C32.39274365 107.78548731 32.94251815 104.56387464 33 101 C32.01 100.67 31.02 100.34 30 100 C30 97.03 30 94.06 30 91 C29.01 91 28.02 91 27 91 C26.505 86.05 26.505 86.05 26 81 C24.515 80.505 24.515 80.505 23 80 C23 77.03 23 74.06 23 71 C21.515 70.505 21.515 70.505 20 70 C20 67.03 20 64.06 20 61 C18.68 60.34 17.36 59.68 16 59 C16 56.36 16 53.72 16 51 C14.515 50.505 14.515 50.505 13 50 C13 47.03 13 44.06 13 41 C12.01 40.67 11.02 40.34 10 40 C9.33984375 37.96875 9.33984375 37.96875 8.9375 35.5 C8.57483048 33.08992981 8.57483048 33.08992981 8 31 C7.34 30.67 6.68 30.34 6 30 C5.60689586 27.67711188 5.49250305 25.38154824 5.34375 23.03125 C5.2303125 22.3609375 5.116875 21.690625 5 21 C4.34 20.67 3.68 20.34 3 20 C2.77493973 18.00660901 2.55595654 16.01059507 2.44140625 14.0078125 C2.17293008 11.88725189 2.17293008 11.88725189 0.4453125 10.53515625 C-1 9 -1 9 -1.07421875 6.73828125 C-0.94660156 5.93777344 -0.81898438 5.13726562 -0.6875 4.3125 C-0.56761719 3.50425781 -0.44773437 2.69601563 -0.32421875 1.86328125 C-0.21722656 1.24839844 -0.11023438 0.63351563 0 0 Z " fill="#DFDD24" transform="translate(638,109)"/>
<path d="M0 0 C0.598125 0.226875 1.19625 0.45375 1.8125 0.6875 C1.1525 0.6875 0.4925 0.6875 -0.1875 0.6875 C-0.455625 1.55375 -0.72375 2.42 -1 3.3125 C-2.15861987 6.60541964 -3.56959839 9.59877875 -5.1875 12.6875 C-5.8475 12.6875 -6.5075 12.6875 -7.1875 12.6875 C-7.31125 13.47125 -7.435 14.255 -7.5625 15.0625 C-8.1875 17.6875 -8.1875 17.6875 -10.1875 19.6875 C-10.89460678 21.33741582 -11.56693989 23.00312256 -12.1875 24.6875 C-12.8475 24.6875 -13.5075 24.6875 -14.1875 24.6875 C-14.5175 26.6675 -14.8475 28.6475 -15.1875 30.6875 C-15.8475 30.6875 -16.5075 30.6875 -17.1875 30.6875 C-17.373125 32.358125 -17.373125 32.358125 -17.5625 34.0625 C-18.1875 37.6875 -18.1875 37.6875 -20.1875 39.6875 C-20.90677295 42.00515729 -21.5784893 44.33845874 -22.1875 46.6875 C-22.8475 46.6875 -23.5075 46.6875 -24.1875 46.6875 C-24.5175 48.9975 -24.8475 51.3075 -25.1875 53.6875 C-25.8475 53.6875 -26.5075 53.6875 -27.1875 53.6875 C-27.31125 54.80125 -27.435 55.915 -27.5625 57.0625 C-28.1875 60.6875 -28.1875 60.6875 -30.1875 62.6875 C-30.90677295 65.00515729 -31.5784893 67.33845874 -32.1875 69.6875 C-32.8475 69.6875 -33.5075 69.6875 -34.1875 69.6875 C-34.5175 71.9975 -34.8475 74.3075 -35.1875 76.6875 C-35.8475 76.6875 -36.5075 76.6875 -37.1875 76.6875 C-37.435 77.6775 -37.6825 78.6675 -37.9375 79.6875 C-38.95891626 83.29893605 -40.50170587 86.44445118 -42.2421875 89.7578125 C-43.3413031 91.88848314 -43.3413031 91.88848314 -44.3125 95.125 C-45.1875 97.6875 -45.1875 97.6875 -47.1875 98.6875 C-47.91443904 100.66638961 -48.58566251 102.66704558 -49.1875 104.6875 C-49.8475 104.6875 -50.5075 104.6875 -51.1875 104.6875 C-51.5175 103.3675 -51.8475 102.0475 -52.1875 100.6875 C-51.1975 100.6875 -50.2075 100.6875 -49.1875 100.6875 C-49.1875 98.3775 -49.1875 96.0675 -49.1875 93.6875 C-48.1975 93.6875 -47.2075 93.6875 -46.1875 93.6875 C-46.1875 91.7075 -46.1875 89.7275 -46.1875 87.6875 C-44.7025 87.1925 -44.7025 87.1925 -43.1875 86.6875 C-42.8575 84.3775 -42.5275 82.0675 -42.1875 79.6875 C-41.1975 79.6875 -40.2075 79.6875 -39.1875 79.6875 C-39.1875 77.7075 -39.1875 75.7275 -39.1875 73.6875 C-37.7025 73.1925 -37.7025 73.1925 -36.1875 72.6875 C-36.1875 70.7075 -36.1875 68.7275 -36.1875 66.6875 C-34.8675 66.6875 -33.5475 66.6875 -32.1875 66.6875 C-32.1875 63.3875 -32.1875 60.0875 -32.1875 56.6875 C-31.1975 56.6875 -30.2075 56.6875 -29.1875 56.6875 C-29.1875 54.3775 -29.1875 52.0675 -29.1875 49.6875 C-28.1975 49.6875 -27.2075 49.6875 -26.1875 49.6875 C-25.8575 47.3775 -25.5275 45.0675 -25.1875 42.6875 C-24.1975 42.6875 -23.2075 42.6875 -22.1875 42.6875 C-22.1875 40.3775 -22.1875 38.0675 -22.1875 35.6875 C-21.1975 35.6875 -20.2075 35.6875 -19.1875 35.6875 C-19.1875 32.7175 -19.1875 29.7475 -19.1875 26.6875 C-17.8675 26.3575 -16.5475 26.0275 -15.1875 25.6875 C-15.1875 24.0375 -15.1875 22.3875 -15.1875 20.6875 C-14.1975 20.3575 -13.2075 20.0275 -12.1875 19.6875 C-12.1875 18.3675 -12.1875 17.0475 -12.1875 15.6875 C-11.1975 15.6875 -10.2075 15.6875 -9.1875 15.6875 C-9.1875 13.7075 -9.1875 11.7275 -9.1875 9.6875 C-7.8675 9.3575 -6.5475 9.0275 -5.1875 8.6875 C-5.249375 7.759375 -5.31125 6.83125 -5.375 5.875 C-5.1875 2.6875 -5.1875 2.6875 -3.9375 0.75 C-2.1875 -0.3125 -2.1875 -0.3125 0 0 Z " fill="#E3E00F" transform="translate(1123.1875,1527.3125)"/>
<path d="M0 0 C0.66 0.33 1.32 0.66 2 1 C1.54625 1.391875 1.0925 1.78375 0.625 2.1875 C-1.11144481 3.91567144 -1.11144481 3.91567144 -1.875 6.1875 C-2.89160913 8.72902283 -4.02583978 10.71117229 -5.5 13 C-7.38078065 15.93115815 -8.76504675 18.73619497 -10 22 C-11.5 24.8125 -11.5 24.8125 -13 27 C-13.66 27 -14.32 27 -15 27 C-15.33 28.98 -15.66 30.96 -16 33 C-16.66 33 -17.32 33 -18 33 C-18.268125 33.86625 -18.53625 34.7325 -18.8125 35.625 C-19.97111987 38.91791964 -21.38209839 41.91127875 -23 45 C-23.66 45 -24.32 45 -25 45 C-25.226875 45.825 -25.45375 46.65 -25.6875 47.5 C-27.04115222 51.10973924 -28.75660984 53.97507771 -30.87890625 57.16796875 C-32.16189886 59.10995074 -32.16189886 59.10995074 -33 62 C-33.66 62 -34.32 62 -35 62 C-35.268125 62.86625 -35.53625 63.7325 -35.8125 64.625 C-36.97111987 67.91791964 -38.38209839 70.91127875 -40 74 C-40.66 74 -41.32 74 -42 74 C-42.226875 74.804375 -42.45375 75.60875 -42.6875 76.4375 C-44.33631588 80.91285739 -46.60544412 84.88721318 -49 89 C-49.33 89 -49.66 89 -50 89 C-50 86.69 -50 84.38 -50 82 C-49.01 82 -48.02 82 -47 82 C-47 80.02 -47 78.04 -47 76 C-46.01 76 -45.02 76 -44 76 C-43.67 73.69 -43.34 71.38 -43 69 C-42.01 69 -41.02 69 -40 69 C-40 67.68 -40 66.36 -40 65 C-39.01 65 -38.02 65 -37 65 C-37 63.02 -37 61.04 -37 59 C-36.01 59 -35.02 59 -34 59 C-33.67 56.69 -33.34 54.38 -33 52 C-32.01 52 -31.02 52 -30 52 C-29.67 50.68 -29.34 49.36 -29 48 C-28.34 48 -27.68 48 -27 48 C-27 46.02 -27 44.04 -27 42 C-25.68 42 -24.36 42 -23 42 C-23 39.69 -23 37.38 -23 35 C-22.01 35 -21.02 35 -20 35 C-20 33.35 -20 31.7 -20 30 C-19.01 29.67 -18.02 29.34 -17 29 C-17 27.68 -17 26.36 -17 25 C-15.68 25 -14.36 25 -13 25 C-13 22.69 -13 20.38 -13 18 C-12.01 18 -11.02 18 -10 18 C-10 16.02 -10 14.04 -10 12 C-9.01 11.67 -8.02 11.34 -7 11 C-6.67 9.02 -6.34 7.04 -6 5 C-5.01 5 -4.02 5 -3 5 C-3 3.68 -3 2.36 -3 1 C-2.01 0.67 -1.02 0.34 0 0 Z " fill="#E1DE24" transform="translate(1175,1437)"/>
<path d="M0 0 C3 1 3 1 4.09765625 2.8203125 C4.41605469 3.58085937 4.73445312 4.34140625 5.0625 5.125 C5.40152344 5.93195312 5.74054687 6.73890625 6.08984375 7.5703125 C6.88868805 9.70284964 7.54534616 11.80005394 8.125 14 C8.41375 14.99 8.7025 15.98 9 17 C9.66 17.33 10.32 17.66 11 18 C11.5625 19.77734375 11.5625 19.77734375 12 21.9375 C12.60382577 24.90810715 12.78691174 25.78691174 15 28 C15.33333333 30.33333333 15.66666667 32.66666667 16 35 C16.66 35.66 17.32 36.32 18 37 C18.56520003 39.65537372 18.73788198 42.29144713 19 45 C19.66 45 20.32 45 21 45 C21.33 47.97 21.66 50.94 22 54 C22.66 54 23.32 54 24 54 C24.66 57.3 25.32 60.6 26 64 C26.66 64 27.32 64 28 64 C28.12117187 64.61488281 28.24234375 65.22976562 28.3671875 65.86328125 C28.53476562 66.67152344 28.70234375 67.47976562 28.875 68.3125 C29.11863281 69.51326172 29.11863281 69.51326172 29.3671875 70.73828125 C29.94478999 73.25301118 29.94478999 73.25301118 32 76 C32.49356318 77.90844429 32.98255003 79.81842909 33.4296875 81.73828125 C34.39465845 85.56511811 35.71312293 89.27173329 37 93 C37.33 93.99 37.66 94.98 38 96 C36.02 96.495 36.02 96.495 34 97 C34 93.7 34 90.4 34 87 C33.01 87 32.02 87 31 87 C31 84.36 31 81.72 31 79 C30.01 79 29.02 79 28 79 C26.39274365 75.78548731 26.94251815 72.56387464 27 69 C25.515 68.505 25.515 68.505 24 68 C23.8046875 65.94921875 23.609375 63.8984375 23.4140625 61.84765625 C23.27742187 61.23792969 23.14078125 60.62820312 23 60 C22.34 59.67 21.68 59.34 21 59 C20.36182933 56.6954948 19.97962677 54.38503677 19.5625 52.03125 C19.376875 51.3609375 19.19125 50.690625 19 50 C18.34 49.67 17.68 49.34 17 49 C17 46.03 17 43.06 17 40 C15.515 39.505 15.515 39.505 14 39 C14 36.69 14 34.38 14 32 C13.34 32 12.68 32 12 32 C10 29 10 29 9.5 25.875 C9.335 24.92625 9.17 23.9775 9 23 C8.34 22.67 7.68 22.34 7 22 C7 19.03 7 16.06 7 13 C6.01 12.67 5.02 12.34 4 12 C4 10.02 4 8.04 4 6 C2.68 5.34 1.36 4.68 0 4 C0 2.68 0 1.36 0 0 Z " fill="#EEED27" transform="translate(600,12)"/>
<path d="M0 0 C1.10275269 -0.00676758 1.10275269 -0.00676758 2.2277832 -0.01367188 C5.85921017 -0.00323049 9.21848919 0.26265434 12.75 1.125 C12.75 2.115 12.75 3.105 12.75 4.125 C36.51 4.125 60.27 4.125 84.75 4.125 C83.75 9.125 83.75 9.125 81.75 11.125 C82.08 9.475 82.41 7.825 82.75 6.125 C81.833396 6.11469254 80.91679199 6.10438507 79.97241211 6.09376526 C71.26538547 5.99512487 62.55841592 5.8925263 53.85148621 5.78566074 C49.37692383 5.73087646 44.90235465 5.6775363 40.42773438 5.62768555 C36.09639762 5.57937479 31.76512564 5.52702387 27.43386841 5.47205925 C25.79478605 5.4519329 24.15568618 5.43317766 22.51657104 5.41592598 C-6.29637964 5.10954012 -6.29637964 5.10954012 -12.25 3.125 C-14.68780377 2.97230819 -17.10283901 2.86817303 -19.54296875 2.80859375 C-20.24899734 2.78781265 -20.95502594 2.76703156 -21.68244934 2.74562073 C-23.93403551 2.68032509 -26.18573662 2.62133353 -28.4375 2.5625 C-29.9655066 2.51929575 -31.49350164 2.47568084 -33.02148438 2.43164062 C-36.76420562 2.32466426 -40.5070423 2.22334078 -44.25 2.125 C-44.25 1.795 -44.25 1.465 -44.25 1.125 C-11.67490387 0.02876478 -11.67490387 0.02876478 0 0 Z " fill="#CDCA0A" transform="translate(1240.25,503.875)"/>
<path d="M0 0 C14.16001895 -0.02335028 28.32003492 -0.0409232 42.48006916 -0.05181217 C49.05467203 -0.05703752 55.62926199 -0.06412889 62.20385742 -0.07543945 C68.54508275 -0.08628064 74.88629565 -0.09227947 81.22752953 -0.09487724 C83.65050642 -0.09672926 86.07348262 -0.10034562 88.49645424 -0.10573006 C91.88217278 -0.11295678 95.26783948 -0.11399024 98.65356445 -0.11352539 C99.66200912 -0.11712067 100.6704538 -0.12071594 101.7094574 -0.12442017 C103.09135757 -0.12235817 103.09135757 -0.12235817 104.50117493 -0.12025452 C105.30221303 -0.12117631 106.10325113 -0.1220981 106.92856312 -0.12304783 C109 0 109 0 112 1 C112 1.99 112 2.98 112 4 C110.39592672 4.02708567 108.7917215 4.04643483 107.1875 4.0625 C105.84751953 4.07990234 105.84751953 4.07990234 104.48046875 4.09765625 C102 4 102 4 99 3 C97.36148974 2.8505599 95.71811245 2.75187049 94.07421875 2.68359375 C93.06689697 2.64169922 92.0595752 2.59980469 91.02172852 2.55664062 C89.92143311 2.51732422 88.8211377 2.47800781 87.6875 2.4375 C86.52597412 2.39431641 85.36444824 2.35113281 84.16772461 2.30664062 C74.58787462 1.98456442 65.02364515 1.968264 55.43969727 2.01928711 C36.95564619 2.0771938 18.476119 1.48860745 0 1 C0 0.67 0 0.34 0 0 Z " fill="#DFDC02" transform="translate(1053,501)"/>
<path d="M0 0 C-0.375 2.9375 -0.375 2.9375 -1 6 C-1.99 6.495 -1.99 6.495 -3 7 C-3.72693904 8.97888961 -4.39816251 10.97954558 -5 13 C-5.66 13 -6.32 13 -7 13 C-7.33 15.31 -7.66 17.62 -8 20 C-8.66 20 -9.32 20 -10 20 C-10.12375 20.969375 -10.2475 21.93875 -10.375 22.9375 C-10.684375 24.4534375 -10.684375 24.4534375 -11 26 C-11.66 26.33 -12.32 26.66 -13 27 C-13.72693904 28.97888961 -14.39816251 30.97954558 -15 33 C-15.66 33 -16.32 33 -17 33 C-17.33 34.98 -17.66 36.96 -18 39 C-18.66 39 -19.32 39 -20 39 C-20.268125 39.86625 -20.53625 40.7325 -20.8125 41.625 C-22.47691199 46.35543407 -24.1224426 50.67637937 -28 54 C-28.33 52.35 -28.66 50.7 -29 49 C-27.68 49 -26.36 49 -25 49 C-25 46.69 -25 44.38 -25 42 C-24.01 42 -23.02 42 -22 42 C-22 40.02 -22 38.04 -22 36 C-20.515 35.505 -20.515 35.505 -19 35 C-18.505 32.03 -18.505 32.03 -18 29 C-17.01 28.67 -16.02 28.34 -15 28 C-15 26.02 -15 24.04 -15 22 C-14.01 22 -13.02 22 -12 22 C-12 20.02 -12 18.04 -12 16 C-10.68 15.67 -9.36 15.34 -8 15 C-8 13.02 -8 11.04 -8 9 C-7.01 8.67 -6.02 8.34 -5 8 C-5.061875 7.05125 -5.12375 6.1025 -5.1875 5.125 C-5.0946875 3.578125 -5.0946875 3.578125 -5 2 C-2 0 -2 0 0 0 Z " fill="#E4E11A" transform="translate(1072,1633)"/>
<path d="M0 0 C0.33 0 0.66 0 1 0 C1.05399736 1.45792884 1.09279177 2.91642712 1.125 4.375 C1.14820313 5.18710938 1.17140625 5.99921875 1.1953125 6.8359375 C1 9 1 9 -1 11 C-1.71927295 13.31765729 -2.3909893 15.65095874 -3 18 C-3.66 18 -4.32 18 -5 18 C-5.33 20.31 -5.66 22.62 -6 25 C-6.66 25 -7.32 25 -8 25 C-8.2475 25.99 -8.495 26.98 -8.75 28 C-9.77141626 31.61143605 -11.31420587 34.75695118 -13.0546875 38.0703125 C-14.1538031 40.20098314 -14.1538031 40.20098314 -15.125 43.4375 C-16 46 -16 46 -18 47 C-18.72693904 48.97888961 -19.39816251 50.97954558 -20 53 C-20.66 53 -21.32 53 -22 53 C-22.33 51.68 -22.66 50.36 -23 49 C-22.01 49 -21.02 49 -20 49 C-20 46.69 -20 44.38 -20 42 C-19.01 42 -18.02 42 -17 42 C-17 40.02 -17 38.04 -17 36 C-15.515 35.505 -15.515 35.505 -14 35 C-13.67 32.69 -13.34 30.38 -13 28 C-12.01 28 -11.02 28 -10 28 C-10 26.02 -10 24.04 -10 22 C-9.01 21.67 -8.02 21.34 -7 21 C-7 19.02 -7 17.04 -7 15 C-5.68 15 -4.36 15 -3 15 C-3 11.7 -3 8.4 -3 5 C-2.01 5 -1.02 5 0 5 C0 3.35 0 1.7 0 0 Z " fill="#E2E02E" transform="translate(1094,1579)"/>
<path d="M0 0 C0.66 0.33 1.32 0.66 2 1 C1.54625 1.391875 1.0925 1.78375 0.625 2.1875 C-1.11144481 3.91567144 -1.11144481 3.91567144 -1.875 6.1875 C-2.89160913 8.72902283 -4.02583978 10.71117229 -5.5 13 C-7.38078065 15.93115815 -8.76504675 18.73619497 -10 22 C-11.5 24.8125 -11.5 24.8125 -13 27 C-13.66 27 -14.32 27 -15 27 C-15.33 28.98 -15.66 30.96 -16 33 C-16.66 33 -17.32 33 -18 33 C-18.66 34.32 -19.32 35.64 -20 37 C-20.99 36.34 -21.98 35.68 -23 35 C-22.01 35 -21.02 35 -20 35 C-20 33.35 -20 31.7 -20 30 C-19.01 29.67 -18.02 29.34 -17 29 C-17 27.68 -17 26.36 -17 25 C-15.68 25 -14.36 25 -13 25 C-13 22.69 -13 20.38 -13 18 C-12.01 18 -11.02 18 -10 18 C-10 16.02 -10 14.04 -10 12 C-9.01 11.67 -8.02 11.34 -7 11 C-6.67 9.02 -6.34 7.04 -6 5 C-5.01 5 -4.02 5 -3 5 C-3 3.68 -3 2.36 -3 1 C-2.01 0.67 -1.02 0.34 0 0 Z " fill="#EEED23" transform="translate(1175,1437)"/>
<path d="M0 0 C0.33 0 0.66 0 1 0 C1.268125 0.969375 1.53625 1.93875 1.8125 2.9375 C2.61397296 5.76823427 3.52690946 8.5364752 4.5 11.3125 C6.1345277 16.12481506 7.11319907 21.00261593 8 26 C8.66 26 9.32 26 10 26 C10.96070434 28.88211302 11.10581883 30.69850044 11.0625 33.6875 C11.05347656 34.49574219 11.04445313 35.30398437 11.03515625 36.13671875 C11.02355469 36.75160156 11.01195312 37.36648437 11 38 C9 35 9 35 8.5 32.875 C8.2525 31.946875 8.2525 31.946875 8 31 C7.34 30.67 6.68 30.34 6 30 C5.60689586 27.67711188 5.49250305 25.38154824 5.34375 23.03125 C5.2303125 22.3609375 5.116875 21.690625 5 21 C4.34 20.67 3.68 20.34 3 20 C2.77493973 18.00660901 2.55595654 16.01059507 2.44140625 14.0078125 C2.17293008 11.88725189 2.17293008 11.88725189 0.4453125 10.53515625 C-1 9 -1 9 -1.07421875 6.73828125 C-0.94660156 5.93777344 -0.81898438 5.13726562 -0.6875 4.3125 C-0.56761719 3.50425781 -0.44773437 2.69601563 -0.32421875 1.86328125 C-0.21722656 1.24839844 -0.11023438 0.63351563 0 0 Z " fill="#DCDA31" transform="translate(638,109)"/>
<path d="M0 0 C2.97 0.495 2.97 0.495 6 1 C6 1.66 6 2.32 6 3 C26.13 3 46.26 3 67 3 C67 3.33 67 3.66 67 4 C45.60375773 4.77615718 24.3918361 5.21773586 3 4 C3 3.01 3 2.02 3 1 C2.01 0.67 1.02 0.34 0 0 Z " fill="#FDFD80" transform="translate(1162,501)"/>
<path d="M0 0 C0.66 0 1.32 0 2 0 C2.12117187 0.61488281 2.24234375 1.22976562 2.3671875 1.86328125 C2.53476562 2.67152344 2.70234375 3.47976562 2.875 4.3125 C3.03742187 5.11300781 3.19984375 5.91351563 3.3671875 6.73828125 C3.94478999 9.25301118 3.94478999 9.25301118 6 12 C6.49356318 13.90844429 6.98255003 15.81842909 7.4296875 17.73828125 C8.39465845 21.56511811 9.71312293 25.27173329 11 29 C11.33 29.99 11.66 30.98 12 32 C10.02 32.495 10.02 32.495 8 33 C8 29.7 8 26.4 8 23 C7.01 23 6.02 23 5 23 C5 20.36 5 17.72 5 15 C4.01 15 3.02 15 2 15 C0.58365167 12.16730334 0.6536995 9.52533562 0.4375 6.375 C0.35371094 5.18648438 0.26992188 3.99796875 0.18359375 2.7734375 C0.12300781 1.85820313 0.06242188 0.94296875 0 0 Z " fill="#DBDA18" transform="translate(626,76)"/>
<path d="M0 0 C1.32 0 2.64 0 4 0 C4.12117187 0.62648437 4.24234375 1.25296875 4.3671875 1.8984375 C4.53476562 2.71570313 4.70234375 3.53296875 4.875 4.375 C5.03742187 5.18710938 5.19984375 5.99921875 5.3671875 6.8359375 C5.86658932 9.18673923 5.86658932 9.18673923 8 11 C8.37890625 12.91015625 8.37890625 12.91015625 8.5625 15.0625 C8.55913448 18.76736617 8.55913448 18.76736617 10 20 C10.04063832 21.66617115 10.042721 23.33388095 10 25 C9.01 24.67 8.02 24.34 7 24 C7 21.03 7 18.06 7 15 C6.01 15 5.02 15 4 15 C3.67 11.7 3.34 8.4 3 5 C2.01 4.67 1.02 4.34 0 4 C0 2.68 0 1.36 0 0 Z " fill="#E7E73E" transform="translate(661,185)"/>
<path d="M0 0 C1.32 0 2.64 0 4 0 C4.33 2.31 4.66 4.62 5 7 C5.66 7 6.32 7 7 7 C7.50636607 8.74816858 8.00484619 10.49862263 8.5 12.25 C8.7784375 13.22453125 9.056875 14.1990625 9.34375 15.203125 C10 18 10 18 10 22 C9.01 21.67 8.02 21.34 7 21 C6.8046875 18.94921875 6.609375 16.8984375 6.4140625 14.84765625 C6.20910156 13.93306641 6.20910156 13.93306641 6 13 C5.34 12.67 4.68 12.34 4 12 C3.36182933 9.6954948 2.97962677 7.38503677 2.5625 5.03125 C2.376875 4.3609375 2.19125 3.690625 2 3 C1.34 2.67 0.68 2.34 0 2 C0 1.34 0 0.68 0 0 Z " fill="#EDEC49" transform="translate(617,59)"/>
<path d="M0 0 C0.33 0.99 0.66 1.98 1 3 C0.01439389 4.34400833 -0.98758315 5.67607028 -2 7 C-2.34820041 8.66362417 -2.68404492 10.32995171 -3 12 C-3.99 12.495 -3.99 12.495 -5 13 C-5.72693904 14.97888961 -6.39816251 16.97954558 -7 19 C-7.66 19 -8.32 19 -9 19 C-9.33 17.68 -9.66 16.36 -10 15 C-9.01 15 -8.02 15 -7 15 C-7 12.69 -7 10.38 -7 8 C-6.01 8 -5.02 8 -4 8 C-4 6.02 -4 4.04 -4 2 C-3.34 1.67 -2.68 1.34 -2 1 C-1.34 1.33 -0.68 1.66 0 2 C0 1.34 0 0.68 0 0 Z " fill="#E5E211" transform="translate(1081,1613)"/>
<path d="M0 0 C0.66 0.33 1.32 0.66 2 1 C1.54625 1.391875 1.0925 1.78375 0.625 2.1875 C-1.11144481 3.91567144 -1.11144481 3.91567144 -1.875 6.1875 C-3.43885161 10.09712904 -5.71080545 13.47883434 -8 17 C-8.66 16.34 -9.32 15.68 -10 15 C-9.625 12.875 -9.625 12.875 -9 11 C-8.34 11 -7.68 11 -7 11 C-6.67 9.02 -6.34 7.04 -6 5 C-5.01 5 -4.02 5 -3 5 C-3 3.68 -3 2.36 -3 1 C-2.01 0.67 -1.02 0.34 0 0 Z " fill="#E7E402" transform="translate(1175,1437)"/>
<path d="M0 0 C1.9375 0.9375 1.9375 0.9375 4 3 C4.66174825 5.9858081 4.87205948 8.94861869 5 12 C5.66 12 6.32 12 7 12 C7.33 13.65 7.66 15.3 8 17 C6.35 16.67 4.7 16.34 3 16 C3 13.03 3 10.06 3 7 C2.01 6.67 1.02 6.34 0 6 C0 4.02 0 2.04 0 0 Z " fill="#EAEA31" transform="translate(685,254)"/>
<path d="M0 0 C0.99 0.33 1.98 0.66 3 1 C2.01 3.64 1.02 6.28 0 9 C-0.66 9 -1.32 9 -2 9 C-2.33 11.31 -2.66 13.62 -3 16 C-3.66 16 -4.32 16 -5 16 C-5.33 16.66 -5.66 17.32 -6 18 C-6.33 16.02 -6.66 14.04 -7 12 C-6.01 12 -5.02 12 -4 12 C-3.67 9.69 -3.34 7.38 -3 5 C-2.01 5 -1.02 5 0 5 C0 3.35 0 1.7 0 0 Z " fill="#E0DC0C" transform="translate(1101,1565)"/>
<path d="M0 0 C1.32 0 2.64 0 4 0 C3.566875 0.8353125 3.566875 0.8353125 3.125 1.6875 C1.9586747 4.08494645 0.9660119 6.51596939 0 9 C-0.66 9 -1.32 9 -2 9 C-2.4021875 10.36125 -2.4021875 10.36125 -2.8125 11.75 C-3.89576294 14.71471963 -4.98359457 16.6169754 -7 19 C-7 17.02 -7 15.04 -7 13 C-6.01 12.67 -5.02 12.34 -4 12 C-4 10.02 -4 8.04 -4 6 C-2.68 6 -1.36 6 0 6 C0 4.02 0 2.04 0 0 Z " fill="#DBD821" transform="translate(1152,1473)"/>
<path d="M0 0 C2.76686876 2.04507691 3.00818778 3.05185595 3.5625 6.5625 C3.706875 7.696875 3.85125 8.83125 4 10 C4.66 10.66 5.32 11.32 6 12 C6.1953125 14.1640625 6.1953125 14.1640625 6.125 16.625 C6.10695313 17.44226563 6.08890625 18.25953125 6.0703125 19.1015625 C6.03550781 20.04128906 6.03550781 20.04128906 6 21 C5.67 21 5.34 21 5 21 C5 19.35 5 17.7 5 16 C4.01 15.67 3.02 15.34 2 15 C2 12.03 2 9.06 2 6 C1.01 5.67 0.02 5.34 -1 5 C-0.67 3.35 -0.34 1.7 0 0 Z " fill="#EDEE16" transform="translate(649,144)"/>
<path d="M0 0 C0.33 0 0.66 0 1 0 C1.12375 1.11375 1.2475 2.2275 1.375 3.375 C1.6465813 7.03103677 1.6465813 7.03103677 4 9 C4.56520003 11.65537372 4.73788198 14.29144713 5 17 C5.66 17 6.32 17 7 17 C7 17.66 7 18.32 7 19 C5.68 19 4.36 19 3 19 C3 16.69 3 14.38 3 12 C2.01 11.67 1.02 11.34 0 11 C0 7.37 0 3.74 0 0 Z " fill="#E1E12C" transform="translate(614,40)"/>
<path d="M0 0 C2.64 0.33 5.28 0.66 8 1 C8 1.99 8 2.98 8 4 C6.39620659 4.05416188 4.79188594 4.09286638 3.1875 4.125 C2.29417969 4.14820313 1.40085937 4.17140625 0.48046875 4.1953125 C-2 4 -2 4 -5 2 C-3.35 2 -1.7 2 0 2 C0 1.34 0 0.68 0 0 Z " fill="#D0CF11" transform="translate(1157,501)"/>
<path d="M0 0 C0.598125 0.226875 1.19625 0.45375 1.8125 0.6875 C1.1525 0.6875 0.4925 0.6875 -0.1875 0.6875 C-0.455625 1.55375 -0.72375 2.42 -1 3.3125 C-2.15861987 6.60541964 -3.56959839 9.59877875 -5.1875 12.6875 C-5.8475 12.6875 -6.5075 12.6875 -7.1875 12.6875 C-7.1875 11.6975 -7.1875 10.7075 -7.1875 9.6875 C-6.5275 9.6875 -5.8675 9.6875 -5.1875 9.6875 C-5.249375 8.594375 -5.31125 7.50125 -5.375 6.375 C-5.1875 2.6875 -5.1875 2.6875 -3.9375 0.6875 C-2.1875 -0.3125 -2.1875 -0.3125 0 0 Z " fill="#DDD80A" transform="translate(1123.1875,1527.3125)"/>
<path d="M0 0 C0.66 0 1.32 0 2 0 C1.67 3.3 1.34 6.6 1 10 C0.01 10.33 -0.98 10.66 -2 11 C-2 11.99 -2 12.98 -2 14 C-2.99 13.67 -3.98 13.34 -5 13 C-4.01 10.69 -3.02 8.38 -2 6 C-1.34 6 -0.68 6 0 6 C0 4.02 0 2.04 0 0 Z " fill="#EBEA3E" transform="translate(1057,1655)"/>
<path d="M0 0 C-0.375 2.9375 -0.375 2.9375 -1 6 C-1.99 6.495 -1.99 6.495 -3 7 C-4.13350534 9.01669827 -4.13350534 9.01669827 -5 11 C-5.99 11 -6.98 11 -8 11 C-7.67 10.01 -7.34 9.02 -7 8 C-6.34 8 -5.68 8 -5 8 C-5.061875 7.05125 -5.12375 6.1025 -5.1875 5.125 C-5.125625 4.09375 -5.06375 3.0625 -5 2 C-2 0 -2 0 0 0 Z " fill="#FAF95C" transform="translate(1072,1633)"/>
<path d="M0 0 C0.66 0 1.32 0 2 0 C2.13277344 0.63808594 2.26554688 1.27617188 2.40234375 1.93359375 C2.57894531 2.75988281 2.75554688 3.58617188 2.9375 4.4375 C3.19853516 5.67306641 3.19853516 5.67306641 3.46484375 6.93359375 C3.80752994 8.97661204 3.80752994 8.97661204 5 10 C5.04063832 11.66617115 5.042721 13.33388095 5 15 C4.01 15 3.02 15 2 15 C0.58365167 12.16730334 0.6536995 9.52533562 0.4375 6.375 C0.35371094 5.18648438 0.26992188 3.99796875 0.18359375 2.7734375 C0.12300781 1.85820313 0.06242188 0.94296875 0 0 Z " fill="#E6E526" transform="translate(626,76)"/>
<path d="M0 0 C1.32 0.33 2.64 0.66 4 1 C3.34 1.66 2.68 2.32 2 3 C1.32558869 4.6635479 0.6599679 6.33066942 0 8 C-1.4375 10.8125 -1.4375 10.8125 -3 13 C-3.99 13 -4.98 13 -6 13 C-6 12.01 -6 11.02 -6 10 C-5.01 10 -4.02 10 -3 10 C-3 8.68 -3 7.36 -3 6 C-2.01 6 -1.02 6 0 6 C0 4.02 0 2.04 0 0 Z " fill="#F0ED1C" transform="translate(1040,1689)"/>
<path d="M0 0 C0.99 0 1.98 0 3 0 C2.47557578 3.7758544 1.67345333 6.22372155 -1 9 C-1.99 9 -2.98 9 -4 9 C-4 8.34 -4 7.68 -4 7 C-3.01 7 -2.02 7 -1 7 C-0.67 4.69 -0.34 2.38 0 0 Z " fill="#F4F231" transform="translate(1142,1489)"/>
<path d="M0 0 C3 1 3 1 4.6875 3.25 C6.06511203 6.1364252 6.26985151 7.85173236 6 11 C5.34 11 4.68 11 4 11 C1.54176828 7.31265242 0.98757384 4.30300029 0 0 Z " fill="#F6F556" transform="translate(608,33)"/>
<path d="M0 0 C0.66 0.33 1.32 0.66 2 1 C1.2884375 1.61875 1.2884375 1.61875 0.5625 2.25 C-1.16266518 4.182185 -1.56584875 5.48192275 -2 8 C-3.32 8 -4.64 8 -6 8 C-6 7.01 -6 6.02 -6 5 C-5.01 5 -4.02 5 -3 5 C-3 3.68 -3 2.36 -3 1 C-2.01 0.67 -1.02 0.34 0 0 Z " fill="#ECEA30" transform="translate(1175,1437)"/>
<path d="M0 0 C0.33 0 0.66 0 1 0 C1.309375 1.134375 1.61875 2.26875 1.9375 3.4375 C2.62924531 6.78775099 2.62924531 6.78775099 4 8 C4.04092937 10.33297433 4.04241723 12.66705225 4 15 C3.67 14.01 3.34 13.02 3 12 C2.34 12 1.68 12 1 12 C-0.3271261 8.0186217 -0.06915913 4.14954773 0 0 Z " fill="#D1CE15" transform="translate(682,239)"/>
<path d="M0 0 C3.875 0.875 3.875 0.875 5 2 C5.07179964 3.51928038 5.08392007 5.04167482 5.0625 6.5625 C5.05347656 7.38878906 5.04445313 8.21507812 5.03515625 9.06640625 C5.01775391 10.02353516 5.01775391 10.02353516 5 11 C3 8 3 8 2.5 5.875 C2.335 5.25625 2.17 4.6375 2 4 C1.34 3.67 0.68 3.34 0 3 C0 2.01 0 1.02 0 0 Z " fill="#EAE959" transform="translate(644,136)"/>
<path d="M0 0 C0.66 0 1.32 0 2 0 C2 0.99 2 1.98 2 3 C1.34 3 0.68 3 0 3 C0 5.97 0 8.94 0 12 C-1.32 12 -2.64 12 -4 12 C-4 11.34 -4 10.68 -4 10 C-3.01 10 -2.02 10 -1 10 C-1.01160156 9.36191406 -1.02320313 8.72382812 -1.03515625 8.06640625 C-1.04869141 6.82697266 -1.04869141 6.82697266 -1.0625 5.5625 C-1.07410156 4.73878906 -1.08570313 3.91507813 -1.09765625 3.06640625 C-1 1 -1 1 0 0 Z " fill="#FAFA69" transform="translate(1105,1553)"/>
<path d="M0 0 C0.33 0 0.66 0 1 0 C1.36630156 3.93774177 1.30233203 5.56539771 -1 8.875 C-1.66 9.57625 -2.32 10.2775 -3 11 C-3 8.36 -3 5.72 -3 3 C-2.01 3 -1.02 3 0 3 C0 2.01 0 1.02 0 0 Z " fill="#DAD62A" transform="translate(1165,1452)"/>
<path d="M0 0 C0.99 0.33 1.98 0.66 3 1 C1.3619751 4.51005335 -0.03134491 7.45543849 -3 10 C-3.33 8.35 -3.66 6.7 -4 5 C-2.68 5 -1.36 5 0 5 C0 3.35 0 1.7 0 0 Z " fill="#E6E30E" transform="translate(1047,1677)"/>
<path d="M0 0 C1.32 0.33 2.64 0.66 4 1 C4.33 4.96 4.66 8.92 5 13 C2.23408664 10.23408664 2.5262589 7.81537701 2 4 C1.04415562 1.66411677 1.04415562 1.66411677 0 0 Z " fill="#FFFF6C" transform="translate(678,237)"/>
<path d="M0 0 C0.99 0 1.98 0 3 0 C2.45276317 3.37462715 1.9451 5.08235 0 8 C-0.66 7.67 -1.32 7.34 -2 7 C-1.34 4.69 -0.68 2.38 0 0 Z " fill="#F7F56E" transform="translate(1081,1607)"/>
<path d="M0 0 C0.66 0.33 1.32 0.66 2 1 C0.68 3.64 -0.64 6.28 -2 9 C-2.33 9 -2.66 9 -3 9 C-3 6.69 -3 4.38 -3 2 C-2.01 2 -1.02 2 0 2 C0 1.34 0 0.68 0 0 Z " fill="#D7D520" transform="translate(1128,1517)"/>
<path d="M0 0 C-0.33 1.98 -0.66 3.96 -1 6 C-1.66 6 -2.32 6 -3 6 C-3 5.34 -3 4.68 -3 4 C-3.66 4 -4.32 4 -5 4 C-5 3.34 -5 2.68 -5 2 C-2 0 -2 0 0 0 Z " fill="#E8E602" transform="translate(1072,1633)"/>
<path d="M0 0 C1.5625 1.25 1.5625 1.25 3 3 C2.6875 5.1875 2.6875 5.1875 2 7 C1.01 6.34 0.02 5.68 -1 5 C-0.67 3.35 -0.34 1.7 0 0 Z " fill="#D9D91F" transform="translate(649,144)"/>
<path d="" fill="#FFFF00" transform="translate(0,0)"/>
<path d="" fill="#FFFF00" transform="translate(0,0)"/>
<path d="" fill="#FFFF00" transform="translate(0,0)"/>
</svg>
